# xmcd
# 
# Track frame offsets:
#     150
#     28161
#     56779
#     76324
#     108347
#     139092
#     165581
#     179406
# 
# Disc length: 2817
# 
# Revision: 11
# Processed by: cddbd v1.5.2PL0 Copyright (c) Steve Scherf et al.
# Submitted via: BonkEnc v1.0.8
# 
DISCID=670aff08
DTITLE=喜多郎 KITARO - The Best of TEN YEARS (1976-1986)  Disc.2
DYEAR=1988
DGENRE=New Age
TTITLE0=Earth Born (地球創生)
TTITLE1=Aqua (無限水)
TTITLE2=Mirage (蜃気楼)
TTITLE3=Moon-Star (ムーンスター)
TTITLE4=Flight (飛翔)
TTITLE5=God of Thunder (雷神)
TTITLE6=Bell Tower (鐘楼)
TTITLE7=Song for Peace (平和の詩)
EXTD=1997.08.05 再発盤
EXTT0=
EXTT1=
EXTT2=
EXTT3=
EXTT4=
EXTT5=
EXTT6=
EXTT7=
PLAYORDER=
